<svg xmlns="http://www.w3.org/2000/svg" width="554.5" height="149" viewBox="0 0 110.9 29.8"><path fill="#007934" d="M94.8 14h-8.1l4 7z"/><path fill="#0082ca" d="M102.8 14h-8.1l-4 7H106.9l-4.1-7z"/><path fill="#101e8e" d="M110.9 14h-8.1l4.1 7z"/><path fill="#fff" d="M102.8 14h-8l4-7z"/><path fill="#a22a2e" d="M102.8 0h-8l4 7z"/><path fill="#d9272e" d="M102.8 0l-4 7 4 7h8.1z"/><path fill="#82bc00" d="M94.8 14l4-7-4-7-8.1 14h8.1z"/><path d="M38.2 29.7l-1.2-2.1c-.2-.3-.3-.6-.5-.9v3h-.8v-4.2h1l1.2 2c.2 .3 .4 .7 .5 1v-3h.8V29.7h-1zM43.1 29.7l-.3-.9h-1.6l-.2 .9h-.8l1.5-4.2h.9l1.5 4.2h-1zm-.9-2.6c-.1-.2-.1-.4-.2-.7 0 .2-.1 .5-.2 .7l-.4 1.1h1.2l-.4-1.1zM46.3 26.2V29.7h-.8v-3.5h-1.1v-.7h3v.7h-1.1zM48.3 29.7v-4.2h.8V29.7h-.8zM51.9 29.8c-1.3 0-1.9-.8-1.9-2.1 0-1.4 .9-2.2 2-2.2s1.9 .7 1.9 2.1c.1 1.3-.8 2.2-2 2.2zm.1-3.6c-.6 0-1.1 .5-1.1 1.4 0 .9 .3 1.5 1.1 1.5 .5 0 1.1-.4 1.1-1.4 0-1-.4-1.5-1.1-1.5zM57.2 29.7l-1.2-2.1c-.2-.3-.3-.6-.5-.9v3h-.8v-4.2h1l1.2 2c.2 .3 .4 .7 .5 1v-3h.8V29.7h-1zM62.2 29.7l-.3-.9h-1.6l-.3 .9h-.8l1.5-4.2h.9l1.5 4.2h-.9zm-.9-2.6c-.1-.2-.1-.4-.2-.7 0 .2-.1 .5-.2 .7l-.4 1.1h1.2l-.4-1.1zM64 29.7v-4.2h.8v3.5h1.4v.7h-2.2z"/><path d="M68.7 29.7v-4.2h.8v3.5H70.9v.7h-2.2zM74.8 29.7l-.3-.9H72.9l-.3 .9h-.8l1.5-4.2h.9l1.5 4.2h-.9zm-.9-2.6c-.1-.2-.1-.4-.2-.7 0 .2-.1 .5-.2 .7l-.4 1.1h1.2l-.4-1.1zM77.8 29.7h-1.2v-4.2h1.4c.9 0 1.4 .4 1.4 1 0 .4-.3 .8-.7 .9 .5 .1 .7 .5 .7 .9 .1 .7-.4 1.4-1.6 1.4zm0-3.6h-.5v1.1h.3c.6 0 .8-.2 .8-.6 .1-.3-.1-.5-.6-.5zm-.1 1.7h-.4v1.2h.4c.5 0 .8-.2 .8-.6 .1-.4-.3-.6-.8-.6zM82.2 29.8c-1.3 0-1.9-.8-1.9-2.1 0-1.4 .9-2.2 2-2.2s1.9 .7 1.9 2.1c.1 1.3-.9 2.2-2 2.2zm.1-3.6c-.6 0-1.1 .5-1.1 1.4 0 .9 .3 1.5 1.1 1.5 .5 0 1.1-.4 1.1-1.4 0-1-.4-1.5-1.1-1.5zM87.1 29.7L85.9 28V29.7h-.8v-4.2h1.2c.9 0 1.5 .3 1.5 1.2 0 .6-.4 1.1-1.1 1.2 .1 .2 .2 .3 .3 .5l1 1.4h-.9zm-.8-3.6h-.3v1.2h.3c.5 0 .8-.3 .8-.6-.1-.4-.3-.6-.8-.6zM98.2 29.8c-1.3 0-1.9-.8-1.9-2.1 0-1.4 .9-2.2 2-2.2s1.9 .7 1.9 2.1c0 1.3-.9 2.2-2 2.2zm0-3.6c-.6 0-1.1 .5-1.1 1.4 0 .9 .3 1.5 1.1 1.5 .5 0 1.1-.4 1.1-1.4 0-1-.4-1.5-1.1-1.5zM103.1 29.7l-1.2-1.7V29.7h-.8v-4.2h1.2c.9 0 1.5 .3 1.5 1.2 0 .6-.4 1.1-1.1 1.2 .1 .2 .2 .3 .3 .5l1 1.4h-.9zm-.9-3.6h-.3v1.2h.3c.5 0 .8-.3 .8-.6-.1-.4-.3-.6-.8-.6zM91.7 29.7l-.3-.9H89.9l-.3 .9h-.8l1.5-4.2h.9l1.5 4.2h-1zm-.9-2.6c-.1-.2-.1-.4-.2-.7 0 .2-.1 .5-.2 .7l-.4 1.1h1.2l-.4-1.1zM94.7 26.2V29.7H93.9v-3.5h-1.1v-.7h3v.7h-1.1zM106.7 28.2V29.7h-.8v-1.5l-1.3-2.7h.9l.6 1.2c.1 .2 .2 .5 .3 .7 .1-.2 .2-.5 .3-.8l.5-1.1h.9l-1.4 2.7z"/><path d="M12.3 20.8L10.8 16.7H3.4L1.9 20.8H0L6.2 4.2h2l6.2 16.6h-2.1zM7.9 8.7c-.3-.9-.6-1.6-.8-2.5-.2 .8-.5 1.6-.7 2.4L3.9 15.2h6.3L7.9 8.7zM21.8 10.2c-2.7-.4-4 1.6-4 5.7v4.9h-1.8V8.6h1.8c0 .8-.1 2-.3 3.1 .5-1.8 1.8-3.6 4.3-3.3v1.8zM27.6 27.2c-3.1 0-5.1-1.3-5.1-3.6 0-1.5 1-2.7 2.1-3.2-.8-.3-1.2-1-1.2-1.8s.5-1.6 1.4-2c-1.2-.7-1.8-2-1.8-3.5 0-2.6 2-4.7 5.3-4.7 .5 0 .8 0 1.2 .1 .2 0 1.8 .1 2.1 .1h2.7v1.5h-2.3 .1c.7 .6 1.2 1.5 1.2 2.7 0 2.6-1.8 4.6-5.3 4.6-.6 0-1.2-.1-1.7-.2-.6 .2-.9 .7-.9 1.1 0 .7 .7 1 2.2 1H29.9c2.7 0 4.1 1.3 4.1 3.4 0 2.6-2.7 4.5-6.4 4.5zm1.8-6.3h-3.3c-1.1 .5-1.7 1.4-1.7 2.5 0 1.6 1.5 2.4 3.6 2.4 2.7 0 4.3-1.1 4.3-2.8-.1-1.4-1.1-2.1-2.9-2.1zm-1.3-11.1c-2.1 0-3.4 1.3-3.4 3.1 0 2 1.2 3 3.3 3 2 0 3.3-1.1 3.3-3 0-2-1.2-3.1-3.2-3.1zM40 21c-3.3 0-5.4-2-5.4-6.3 0-3.5 2.2-6.4 5.8-6.4 3 0 5.4 1.6 5.4 6.1 .1 3.7-2.1 6.6-5.8 6.6zm.3-11.1c-1.9 0-3.7 1.5-3.7 4.7 0 3.1 1.4 4.8 3.7 4.8 1.9 0 3.7-1.5 3.7-4.8 0-3-1.3-4.7-3.7-4.7zM55.5 20.8v-7.9c0-1.9-.5-3-2.3-3-2.2 0-3.7 2.2-3.7 5.1v5.9h-1.8V8.6h1.8c0 .8-.1 2-.2 2.7 .7-1.8 2.2-3 4.4-3 2.8 0 3.7 1.8 3.7 3.9V20.7h-1.9zM68.3 20.8v-7.9c0-1.9-.5-3-2.3-3-2.2 0-3.7 2.2-3.7 5.1v5.9h-1.8V8.6h1.8c0 .8-.1 2-.2 2.7 .7-1.8 2.2-3 4.4-3 2.8 0 3.7 1.8 3.7 3.9V20.7h-1.9zM81.9 14.3h-8.2c-.1 3.7 1.3 5.2 4.1 5.2 1.3 0 2.6-.3 3.5-.8l.2 1.6c-1.1 .5-2.5 .7-4 .7-3.7 0-5.7-2-5.7-6.3 0-3.7 2-6.4 5.4-6.4 3.4 0 4.8 2.3 4.8 5 0 .3 0 .6-.1 1zM77.1 9.7c-1.7 0-3 1.3-3.2 3.2h6.2c0-1.9-1.1-3.2-3-3.2z"/></svg>